<?xml version="1.0" encoding="UTF-8" standalone="no"?>
<svg
   xmlns:dc="http://purl.org/dc/elements/1.1/"
   xmlns:cc="http://creativecommons.org/ns#"
   xmlns:rdf="http://www.w3.org/1999/02/22-rdf-syntax-ns#"
   xmlns:svg="http://www.w3.org/2000/svg"
   xmlns="http://www.w3.org/2000/svg"
   xmlns:sodipodi="http://sodipodi.sourceforge.net/DTD/sodipodi-0.dtd"
   xmlns:inkscape="http://www.inkscape.org/namespaces/inkscape"
   inkscape:version="1.0 (4035a4f, 2020-05-01)"
   height="141.64999"
   width="509.35999"
   sodipodi:docname="logo.svg"
   xml:space="preserve"
   viewBox="0 0 509.35999 141.64999"
   y="0px"
   x="0px"
   id="Layer_1"
   version="1.1"><metadata
   id="metadata883"><rdf:RDF><cc:Work
       rdf:about=""><dc:format>image/svg+xml</dc:format><dc:type
         rdf:resource="http://purl.org/dc/dcmitype/StillImage" /><dc:title></dc:title></cc:Work></rdf:RDF></metadata><defs
   id="defs881" /><sodipodi:namedview
   inkscape:current-layer="Layer_1"
   inkscape:window-maximized="0"
   inkscape:window-y="25"
   inkscape:window-x="0"
   inkscape:cy="70.84"
   inkscape:cx="254.69"
   inkscape:zoom="0.667"
   fit-margin-bottom="0"
   fit-margin-right="0"
   fit-margin-left="0"
   fit-margin-top="0"
   showgrid="false"
   id="namedview879"
   inkscape:window-height="699"
   inkscape:window-width="1271"
   inkscape:pageshadow="2"
   inkscape:pageopacity="0"
   guidetolerance="10"
   gridtolerance="10"
   objecttolerance="10"
   borderopacity="1"
   bordercolor="#666666"
   pagecolor="#ffffff" />
<style
   id="style833"
   type="text/css">
	.st0{fill:#2F455C;}
	.st1{fill:none;}
	.st2{fill:url(#SVGID_1_);}
	.st3{fill:url(#SVGID_2_);}
	.st4{fill:url(#SVGID_3_);}
	.st5{fill:url(#SVGID_4_);}
	.st6{fill:url(#SVGID_5_);}
	.st7{fill:url(#SVGID_6_);}
	.st8{fill:#FFFFFF;}
	.st9{fill:url(#SVGID_7_);}
	.st10{fill:url(#SVGID_8_);}
	.st11{fill:url(#SVGID_9_);}
	.st12{fill:url(#SVGID_10_);}
	.st13{fill:url(#SVGID_11_);}
	.st14{fill:url(#SVGID_12_);}
	.st15{fill:url(#SVGID_13_);}
	.st16{fill:url(#SVGID_14_);}
	.st17{fill:url(#SVGID_15_);}
	.st18{fill:url(#SVGID_16_);}
	.st19{fill:url(#SVGID_17_);}
	.st20{fill:url(#SVGID_18_);}
	.st21{fill:url(#SVGID_19_);}
	.st22{fill:url(#SVGID_20_);}
	.st23{fill:url(#SVGID_21_);}
</style>
<g
   transform="translate(-245.31,-429.16)"
   id="g876">
	<g
   id="g849">
		<path
   id="path835"
   d="m 416.58,488.82 h -22.89 v -12.37 c 20.83,0 38.46,0 59.39,0 v 12.37 h -22.89 v 59.8 h -13.61 z"
   class="st0" />
		<path
   id="path837"
   d="m 461.33,497.79 0.93,5.88 c 3.92,-6.29 9.18,-7.22 14.33,-7.22 5.26,0 10.31,2.06 13.09,4.85 l -5.67,10.93 c -2.58,-2.17 -4.95,-3.3 -9.07,-3.3 -6.6,0 -12.68,3.51 -12.68,12.89 v 26.81 H 449.68 V 497.8 h 11.65 z"
   class="st0" />
		<path
   id="path839"
   d="m 505.15,527.69 c 0.82,6.29 6.29,10.83 15.16,10.83 4.64,0 10.72,-1.75 13.61,-4.74 l 8.04,7.94 c -5.36,5.57 -14.13,8.25 -21.86,8.25 -17.53,0 -27.94,-10.83 -27.94,-27.12 0,-15.47 10.52,-26.6 27.01,-26.6 17.01,0 27.63,10.52 25.67,31.45 h -39.69 z m 27.64,-10.41 c -0.82,-6.6 -5.98,-9.9 -13.2,-9.9 -6.81,0 -12.37,3.3 -14.23,9.9 z"
   class="st0" />
		<path
   id="path841"
   d="m 591.97,548.62 v -26.6 c 0,-7.73 -4.23,-13.61 -12.27,-13.61 -7.73,0 -12.99,6.5 -12.99,14.23 v 25.98 h -12.48 v -50.93 h 11.24 l 0.82,6.91 c 5.16,-5.05 10.31,-7.63 16.7,-7.63 11.96,0 21.55,8.97 21.55,24.95 v 26.7 z"
   class="st0" />
		<path
   id="path843"
   d="m 668.17,476.55 v 72.07 h -11.75 l -0.82,-7.01 c -3.92,6.08 -10.21,8.15 -16.39,8.15 -14.95,0 -26.19,-9.9 -26.19,-26.6 0,-17.53 11.03,-26.6 25.88,-26.6 5.36,0 13.71,2.89 16.7,8.15 v -28.15 h 12.57 z m -42.59,46.6 c 0,8.87 6.39,14.95 14.43,14.95 7.94,0 14.74,-5.77 14.74,-14.95 0,-8.87 -6.81,-14.85 -14.74,-14.85 -8.03,0.01 -14.43,5.68 -14.43,14.85 z"
   class="st0" />
		<path
   id="path845"
   d="m 692.81,483.46 c 0,9.8 -14.85,9.8 -14.85,0 0,-9.8 14.85,-9.8 14.85,0 z m -13.71,14.12 v 51.04 h 12.58 v -51.04 z"
   class="st0" />
		<path
   id="path847"
   d="m 754.67,523.26 c 0,14.64 -10,26.5 -26.5,26.5 -16.5,0 -26.39,-11.86 -26.39,-26.5 0,-14.54 10.1,-26.5 26.29,-26.5 16.19,0 26.6,11.96 26.6,26.5 z m -40.31,0 c 0,7.73 4.64,14.95 13.82,14.95 9.18,0 13.82,-7.22 13.82,-14.95 0,-7.63 -5.36,-15.05 -13.82,-15.05 -9.08,-0.01 -13.82,7.42 -13.82,15.05 z"
   class="st0" />
	</g>
	<g
   id="g874">
		<path
   id="path851"
   d="m 320.13,455.09 c -0.08,-0.55 -0.18,-1.09 -0.31,-1.62 -0.13,-0.53 -0.28,-1.05 -0.45,-1.56 -0.44,-1.28 -1.02,-2.49 -1.72,-3.62 -0.7,-1.13 -1.53,-2.17 -2.46,-3.11 -0.56,-0.56 -1.16,-1.09 -1.79,-1.57 -1.47,-1.13 -3.13,-2.02 -4.92,-2.64 -0.51,-0.18 -1.03,-0.33 -1.56,-0.46 -1.33,-0.32 -2.71,-0.49 -4.13,-0.49 -1.42,0 -2.81,0.17 -4.14,0.49 -0.53,0.13 -1.05,0.28 -1.56,0.46 -1.79,0.62 -3.44,1.51 -4.92,2.64 -0.63,0.48 -1.23,1.01 -1.79,1.57 -0.93,0.94 -1.76,1.98 -2.47,3.11 -0.7,1.13 -1.28,2.34 -1.72,3.62 -0.17,0.51 -0.33,1.03 -0.45,1.56 -0.13,0.53 -0.23,1.07 -0.31,1.62 -0.04,0.27 -0.07,0.55 -0.1,0.83 h 34.89 c -0.02,-0.28 -0.05,-0.56 -0.09,-0.83 z"
   class="st1" />
		<linearGradient
   y2="451.5751"
   x2="319.66809"
   y1="544.73541"
   x1="235.91789"
   gradientUnits="userSpaceOnUse"
   id="SVGID_1_">
			<stop
   id="stop853"
   style="stop-color:#71EBFA"
   offset="0" />
			<stop
   id="stop855"
   style="stop-color:#6E41FF"
   offset="1" />
		</linearGradient>
		<path
   style="fill:url(#SVGID_1_)"
   id="path858"
   d="m 267.12,486.02 c 12,-0.72 23.81,1.74 32.76,3.97 2.08,0.52 4.09,0.99 6.01,1.43 5.85,-3.88 12.01,-6.42 17.23,-8.08 15.23,-4.81 27.69,-5 35.07,-0.51 0.84,0.51 1.6,1.08 2.28,1.7 -0.13,-7.71 -0.24,-12.75 -0.24,-12.75 0,-8.76 -7.11,-15.87 -15.87,-15.87 H 331.1 c -0.85,-14.89 -13.23,-26.75 -28.33,-26.75 -15.1,0 -27.48,11.86 -28.33,26.75 h -29.13 v 38.15 c 1.3,-1.27 2.55,-2.18 3.2,-2.62 4.67,-3.17 10.76,-4.95 18.61,-5.42 z m 18.32,-30.93 c 0.08,-0.55 0.18,-1.09 0.31,-1.62 0.13,-0.53 0.28,-1.05 0.45,-1.56 0.44,-1.28 1.02,-2.49 1.72,-3.62 0.7,-1.13 1.53,-2.17 2.47,-3.11 0.56,-0.56 1.16,-1.09 1.79,-1.57 1.47,-1.13 3.13,-2.02 4.92,-2.64 0.51,-0.18 1.03,-0.33 1.56,-0.46 1.33,-0.32 2.71,-0.49 4.14,-0.49 1.42,0 2.81,0.17 4.13,0.49 0.53,0.13 1.05,0.28 1.56,0.46 1.79,0.62 3.44,1.51 4.92,2.64 0.63,0.48 1.23,1.01 1.79,1.57 0.93,0.94 1.76,1.98 2.46,3.11 0.7,1.13 1.28,2.34 1.72,3.62 0.17,0.51 0.33,1.03 0.45,1.56 0.12,0.53 0.23,1.07 0.31,1.62 0.04,0.27 0.07,0.55 0.1,0.83 h -34.89 c 0.02,-0.28 0.05,-0.56 0.09,-0.83 z"
   class="st2" />
		<linearGradient
   y2="482.89209"
   x2="354.50381"
   y1="576.05231"
   x1="270.75369"
   gradientUnits="userSpaceOnUse"
   id="SVGID_2_">
			<stop
   id="stop860"
   style="stop-color:#71EBFA"
   offset="0" />
			<stop
   id="stop862"
   style="stop-color:#6E41FF"
   offset="1" />
		</linearGradient>
		<path
   style="fill:url(#SVGID_2_)"
   id="path865"
   d="m 360.73,500.18 c -4.25,3.88 -11.7,5.82 -22.07,5.82 -8.33,0 -18.54,-1.25 -30.49,-3.75 -3.35,2.7 -6.4,6 -8.74,10.02 -4.96,8.55 -7.36,21.21 -0.9,28.79 3.18,3.73 8.12,5.9 13.55,5.94 0.07,0 0.14,0 0.2,0 1.34,0 2.5,-0.1 3.48,-0.26 v 0 c 0,0 11.02,-0.97 9.19,-12.19 0.4,0.29 0.8,0.6 1.18,0.96 1.89,1.78 4.03,5.08 3.48,10.7 -0.67,6.82 -7.13,10.87 -17.32,10.87 -0.1,0 -0.19,0 -0.29,0 -8.37,-0.06 -16.08,-3.52 -21.16,-9.49 -9.69,-11.38 -7.05,-28.49 -0.14,-40.4 1.65,-2.85 3.57,-5.4 5.66,-7.69 -8.1,-1.98 -18.45,-4.03 -28.62,-3.42 -5.99,0.36 -10.41,1.57 -13.52,3.68 0,0 -0.92,0.59 -1.91,1.59 -0.36,0.36 -0.67,0.71 -0.92,1.03 0.01,0 0.01,0 0.02,0 -1.92,2.51 -3.09,6.52 3.42,10.71 -1.83,-0.06 -3.72,-0.34 -5.65,-0.85 -1.09,-0.29 -2.48,-0.73 -3.84,-1.54 v 35.68 c 0,13.49 10.94,24.43 24.43,24.43 h 16.68 37.07 37.57 V 533.4 h -0.01 c -0.07,-10.75 -0.2,-22.71 -0.35,-33.22 z"
   class="st3" />
		<linearGradient
   y2="479.43329"
   x2="350.6564"
   y1="572.59363"
   x1="266.90619"
   gradientUnits="userSpaceOnUse"
   id="SVGID_3_">
			<stop
   id="stop867"
   style="stop-color:#71EBFA"
   offset="0" />
			<stop
   id="stop869"
   style="stop-color:#6E41FF"
   offset="1" />
		</linearGradient>
		<path
   style="fill:url(#SVGID_3_)"
   id="path872"
   d="m 343.63,495.7 c 7.6,-0.64 9.94,-2.58 10.5,-3.2 -0.16,-0.25 -0.51,-0.63 -1.18,-1.04 -3.64,-2.21 -12.59,-2.98 -26.78,1.51 -1.36,0.43 -2.79,0.93 -4.26,1.5 10.33,1.54 17.26,1.6 21.72,1.23 z"
   class="st4" />
	</g>
</g>
</svg>
