<?xml version="1.0" encoding="UTF-8" standalone="no"?>
<svg
   xmlns:dc="http://purl.org/dc/elements/1.1/"
   xmlns:cc="http://creativecommons.org/ns#"
   xmlns:rdf="http://www.w3.org/1999/02/22-rdf-syntax-ns#"
   xmlns:svg="http://www.w3.org/2000/svg"
   xmlns="http://www.w3.org/2000/svg"
   height="195.45"
   width="159.67999"
   xml:space="preserve"
   viewBox="0 0 159.67999 195.45"
   y="0px"
   x="0px"
   id="Layer_1"
   version="1.1"><metadata
   id="metadata883"><rdf:RDF><cc:Work
       rdf:about=""><dc:format>image/svg+xml</dc:format><dc:type
         rdf:resource="http://purl.org/dc/dcmitype/StillImage" /><dc:title></dc:title></cc:Work></rdf:RDF></metadata><defs
   id="defs881">
	
	
</defs>
<style
   id="style833"
   type="text/css">
	.st0{fill:#2F455C;}
	.st1{fill:none;}
	.st2{fill:url(#SVGID_1_);}
	.st3{fill:url(#SVGID_2_);}
	.st4{fill:url(#SVGID_3_);}
	.st5{fill:url(#SVGID_4_);}
	.st6{fill:url(#SVGID_5_);}
	.st7{fill:url(#SVGID_6_);}
	.st8{fill:#FFFFFF;}
	.st9{fill:url(#SVGID_7_);}
	.st10{fill:url(#SVGID_8_);}
	.st11{fill:url(#SVGID_9_);}
	.st12{fill:url(#SVGID_10_);}
	.st13{fill:url(#SVGID_11_);}
	.st14{fill:url(#SVGID_12_);}
	.st15{fill:url(#SVGID_13_);}
	.st16{fill:url(#SVGID_14_);}
	.st17{fill:url(#SVGID_15_);}
	.st18{fill:url(#SVGID_16_);}
	.st19{fill:url(#SVGID_17_);}
	.st20{fill:url(#SVGID_18_);}
	.st21{fill:url(#SVGID_19_);}
	.st22{fill:url(#SVGID_20_);}
	.st23{fill:url(#SVGID_21_);}
</style>
<g
   transform="translate(-420.15,-323.73)"
   id="g874">
		<path
   class="st1"
   d="m 523.36,359.5 c -0.11,-0.76 -0.25,-1.5 -0.42,-2.24 -0.18,-0.73 -0.38,-1.45 -0.62,-2.16 -0.6,-1.76 -1.4,-3.44 -2.37,-4.99 -0.97,-1.56 -2.11,-2.99 -3.4,-4.28 -0.77,-0.78 -1.6,-1.5 -2.47,-2.16 -2.03,-1.55 -4.32,-2.79 -6.78,-3.64 -0.7,-0.24 -1.42,-0.45 -2.15,-0.63 -1.83,-0.44 -3.74,-0.68 -5.7,-0.68 -1.96,0 -3.88,0.24 -5.7,0.68 -0.73,0.18 -1.45,0.39 -2.15,0.63 -2.46,0.85 -4.75,2.09 -6.78,3.64 -0.87,0.67 -1.7,1.39 -2.47,2.16 -1.29,1.29 -2.43,2.73 -3.4,4.28 -0.97,1.55 -1.77,3.23 -2.37,4.99 -0.24,0.71 -0.45,1.43 -0.62,2.16 -0.18,0.73 -0.32,1.48 -0.42,2.24 -0.05,0.38 -0.1,0.76 -0.13,1.14 h 48.13 c -0.08,-0.38 -0.12,-0.76 -0.18,-1.14 z"
   id="path851" />
		<linearGradient
   id="SVGID_1_"
   gradientUnits="userSpaceOnUse"
   x1="407.17801"
   y1="483.1832"
   x2="522.72607"
   y2="354.6521">
			<stop
   offset="0"
   style="stop-color:#71EBFA"
   id="stop853" />
			<stop
   offset="1"
   style="stop-color:#6E41FF"
   id="stop855" />
		</linearGradient>
		<path
   class="st2"
   d="m 450.23,402.18 c 16.56,-1 32.85,2.4 45.19,5.47 2.87,0.71 5.64,1.37 8.3,1.97 8.07,-5.35 16.56,-8.86 23.78,-11.14 21.02,-6.64 38.2,-6.89 48.38,-0.7 1.16,0.7 2.21,1.49 3.15,2.34 -0.18,-10.64 -0.33,-17.59 -0.33,-17.59 0,-12.09 -9.8,-21.9 -21.9,-21.9 h -18.3 c -1.17,-20.55 -18.25,-36.9 -39.08,-36.9 -20.83,0 -37.91,16.36 -39.08,36.9 h -40.19 v 52.63 c 1.8,-1.75 3.51,-3.01 4.41,-3.62 6.44,-4.37 14.83,-6.81 25.67,-7.46 z M 475.5,359.5 c 0.11,-0.76 0.25,-1.5 0.42,-2.24 0.18,-0.73 0.38,-1.45 0.62,-2.16 0.6,-1.76 1.4,-3.44 2.37,-4.99 0.97,-1.56 2.11,-2.99 3.4,-4.28 0.77,-0.78 1.6,-1.5 2.47,-2.16 2.03,-1.55 4.32,-2.79 6.78,-3.64 0.7,-0.24 1.42,-0.45 2.15,-0.63 1.83,-0.44 3.74,-0.68 5.7,-0.68 1.96,0 3.88,0.24 5.7,0.68 0.73,0.18 1.45,0.39 2.15,0.63 2.46,0.85 4.75,2.09 6.78,3.64 0.87,0.67 1.7,1.39 2.47,2.16 1.29,1.29 2.43,2.73 3.4,4.28 0.97,1.55 1.77,3.23 2.37,4.99 0.24,0.71 0.45,1.43 0.62,2.16 0.18,0.73 0.32,1.48 0.42,2.24 0.05,0.38 0.1,0.76 0.13,1.14 h -48.13 c 0.08,-0.38 0.13,-0.76 0.18,-1.14 z"
   id="path858"
   style="fill:url(#SVGID_1_)" />
		<linearGradient
   id="SVGID_2_"
   gradientUnits="userSpaceOnUse"
   x1="455.23999"
   y1="526.3905"
   x2="570.78809"
   y2="397.85941">
			<stop
   offset="0"
   style="stop-color:#71EBFA"
   id="stop860" />
			<stop
   offset="1"
   style="stop-color:#6E41FF"
   id="stop862" />
		</linearGradient>
		<path
   class="st3"
   d="m 506.86,424.56 c -4.63,3.72 -8.83,8.28 -12.05,13.83 -6.84,11.8 -10.15,29.26 -1.25,39.73 4.38,5.15 11.2,8.14 18.69,8.19 0.09,0 0.19,0 0.28,0 1.85,0 3.45,-0.14 4.81,-0.36 v 0 c 0,0 15.2,-1.34 12.68,-16.81 0.56,0.4 1.1,0.83 1.62,1.32 2.61,2.46 5.56,7.01 4.8,14.77 -0.92,9.41 -9.84,15 -23.9,15 -0.13,0 -0.26,0 -0.4,0 -11.55,-0.09 -22.19,-4.86 -29.2,-13.09 -13.36,-15.7 -9.73,-39.31 -0.19,-55.74 2.28,-3.93 4.92,-7.46 7.8,-10.61 -11.17,-2.73 -25.46,-5.56 -39.49,-4.72 -8.26,0.5 -14.37,2.16 -18.66,5.08 0,0 -1.27,0.81 -2.64,2.2 -0.5,0.5 -0.93,0.98 -1.26,1.41 0.01,0 0.02,0 0.02,0.01 -2.66,3.46 -4.27,9 4.71,14.78 -2.52,-0.08 -5.14,-0.47 -7.79,-1.18 -1.5,-0.4 -3.42,-1.01 -5.29,-2.12 v 49.23 c 0,18.61 15.09,33.7 33.7,33.7 h 23.01 51.14 51.83 v -51.64 h -0.02 c -0.05,-14.83 -0.24,-31.34 -0.45,-45.84 -5.86,5.35 -16.14,8.03 -30.45,8.03 -11.47,0.01 -25.56,-1.72 -42.05,-5.17 z"
   id="path865"
   style="fill:url(#SVGID_2_)" />
		<linearGradient
   id="SVGID_3_"
   gradientUnits="userSpaceOnUse"
   x1="449.93179"
   y1="521.61853"
   x2="565.47998"
   y2="393.08731">
			<stop
   offset="0"
   style="stop-color:#71EBFA"
   id="stop867" />
			<stop
   offset="1"
   style="stop-color:#6E41FF"
   id="stop869" />
		</linearGradient>
		<path
   class="st4"
   d="m 568.65,409.68 c -5.02,-3.05 -17.36,-4.11 -36.95,2.08 -1.87,0.59 -3.85,1.28 -5.88,2.07 14.25,2.12 23.81,2.21 29.97,1.69 10.49,-0.88 13.71,-3.56 14.49,-4.42 -0.23,-0.34 -0.71,-0.86 -1.63,-1.42 z"
   id="path872"
   style="fill:url(#SVGID_3_)" />
	</g>
</svg>
